<svg xmlns="http://www.w3.org/2000/svg" viewBox="0 0 24 30" x="0px" y="0px"><g><path d="M8,11H4A3,3,0,0,1,1,8V4A3,3,0,0,1,4,1H8a3,3,0,0,1,3,3V8A3,3,0,0,1,8,11ZM4,3A1,1,0,0,0,3,4V8A1,1,0,0,0,4,9H8A1,1,0,0,0,9,8V4A1,1,0,0,0,8,3Z"/><path d="M20,11H16a3,3,0,0,1-3-3V4a3,3,0,0,1,3-3h4a3,3,0,0,1,3,3V8A3,3,0,0,1,20,11ZM16,3a1,1,0,0,0-1,1V8a1,1,0,0,0,1,1h4a1,1,0,0,0,1-1V4a1,1,0,0,0-1-1Z"/><path d="M20,23H16a3,3,0,0,1-3-3V16a3,3,0,0,1,3-3h4a3,3,0,0,1,3,3v4A3,3,0,0,1,20,23Zm-4-8a1,1,0,0,0-1,1v4a1,1,0,0,0,1,1h4a1,1,0,0,0,1-1V16a1,1,0,0,0-1-1Z"/><path d="M8,23H4a3,3,0,0,1-3-3V16a3,3,0,0,1,3-3H8a3,3,0,0,1,3,3v4A3,3,0,0,1,8,23ZM4,15a1,1,0,0,0-1,1v4a1,1,0,0,0,1,1H8a1,1,0,0,0,1-1V16a1,1,0,0,0-1-1Z"/></g><text x="0" y="39" fill="#000000" font-size="5px" font-weight="bold" font-family="'Helvetica Neue', Helvetica, Arial-Unicode, Arial, Sans-serif">Created by Arkinasi</text><text x="0" y="44" fill="#000000" font-size="5px" font-weight="bold" font-family="'Helvetica Neue', Helvetica, Arial-Unicode, Arial, Sans-serif">from the Noun Project</text></svg>